inDegrees=no
num_controls=7
num_derivatives=13
num_iterations=66
num_multipliers=7
num_parameters=0
num_slacks=7
num_states=26
objective=0.459307
objective_accelerations=0.023637
objective_balance=0.001216
objective_effort=0.011446
objective_height=0.417614
objective_ligament=0.005394
solver_duration=1002.305571
status=Solve_Succeeded
success=true
DataType=double
version=3
OpenSimVersion=4.5
endheader
time	/jointset/ground_pelvis/pelvis_tilt/value	/jointset/ground_pelvis/pelvis_tx/value	/jointset/ground_pelvis/pelvis_ty/value	/jointset/hip_l/hip_flexion_l/value	/jointset/hip_l/hip_adduction_l/value	/jointset/hip_l/hip_rotation_l/value	/jointset/back/lumbar_extension/value	/jointset/patellofemoral_l/patellar_flexion_l/value	/jointset/knee_l/knee_flexion_l/value	/jointset/knee_l/knee_adduction_l/value	/jointset/knee_l/knee_rotation_l/value	/jointset/ankle_l/ankle_angle_l/value	/jointset/subtalar_l/subtalar_angle_l/value	/jointset/ground_pelvis/pelvis_tilt/speed	/jointset/ground_pelvis/pelvis_tx/speed	/jointset/ground_pelvis/pelvis_ty/speed	/jointset/hip_l/hip_flexion_l/speed	/jointset/hip_l/hip_adduction_l/speed	/jointset/hip_l/hip_rotation_l/speed	/jointset/back/lumbar_extension/speed	/jointset/patellofemoral_l/patellar_flexion_l/speed	/jointset/knee_l/knee_flexion_l/speed	/jointset/knee_l/knee_adduction_l/speed	/jointset/knee_l/knee_rotation_l/speed	/jointset/ankle_l/ankle_angle_l/speed	/jointset/subtalar_l/subtalar_angle_l/speed	/forceset/tau_hip_flexion_l	/forceset/tau_hip_adduction_l	/forceset/tau_hip_rotation_l	/forceset/tau_knee_flexion_l	/forceset/tau_ankle_angle_l	/forceset/tau_subtalar_angle_l	/forceset/tau_lumbar_extension	lambda_cid13_p0	lambda_cid13_p1	lambda_cid13_p2	lambda_cid13_p3	lambda_cid13_p4	lambda_cid13_p5	lambda_cid14_p0	/jointset/ground_pelvis/pelvis_tilt/accel	/jointset/ground_pelvis/pelvis_tx/accel	/jointset/ground_pelvis/pelvis_ty/accel	/jointset/hip_l/hip_flexion_l/accel	/jointset/hip_l/hip_adduction_l/accel	/jointset/hip_l/hip_rotation_l/accel	/jointset/back/lumbar_extension/accel	/jointset/patellofemoral_l/patellar_flexion_l/accel	/jointset/knee_l/knee_flexion_l/accel	/jointset/knee_l/knee_adduction_l/accel	/jointset/knee_l/knee_rotation_l/accel	/jointset/ankle_l/ankle_angle_l/accel	/jointset/subtalar_l/subtalar_angle_l/accel	gamma_cid13_p0	gamma_cid13_p1	gamma_cid13_p2	gamma_cid13_p3	gamma_cid13_p4	gamma_cid13_p5	gamma_cid14_p0
0.5	-0.02401047677208112	0.1036466153358615	0.8508444452024663	0.3890429028981447	-0.42649226663842	-0.3544220552259554	-0.2267088472944833	0.5530815511482422	0.5530815511485166	-0.1673893616817108	-0.1705600577936191	0.2128014373908075	0.04400728619639462	0.07346055593618661	0.09218767064226033	-0.1804900292442705	0.5222330614446757	-0.2388761224030542	0.5337199633452706	-0.1891485768830671	1.276690654902321	1.276690654902284	0.002039756660838772	0.0266609855350762	0.7574297962617123	0.1684047614237912	-0.01388878795327132	0.05097984780636632	-0.01550505470676542	-0.2172402201331589	-0.01039098828706886	-0.006937085923855716	0.06142631457376635	-38.07626808314726	5.391868441917739	3.702155006062729	5.895782247241819	-536.8071502527796	-49.06808620882335	-36.652576741566	0.04123231835297037	-0.01161664484081011	-0.1927461099332797	-0.409389322666845	0.3195222270388149	-0.3956840645985502	0.3631422351132779	-0.8568280503379524	-0.8568280503379512	-0.1615404767080188	-0.1679334984990247	-0.4288414084309321	0.2473502437598355	7.878542678518484e-08	-4.186768783670049e-07	-2.665546684957855e-07	-1.127303681513581e-07	1.059176113196826e-07	5.347517096537206e-09	4.764530245944773e-09
0.51	-0.02327463648021089	0.1045677798872392	0.8490301874595303	0.3942449759718102	-0.4288647760621423	-0.3491081427953964	-0.2285812161648033	0.5658045269094056	0.5658045269096438	-0.1673753653471737	-0.1703043898820659	0.2203534055274545	0.04570363942930659	0.07366638220993485	0.09203301320681737	-0.1823254288536465	0.5181379942107753	-0.235598482238997	0.5288257691678179	-0.1852756290584493	1.26775214940615	1.267752149406098	0.0008722781951345669	0.02433524983049531	0.7528644993926927	0.1708506840663606	-0.0145236017861594	0.05287038796440017	-0.01533711811321808	-0.2195160158335218	-0.01389905829516549	-0.006717289018396445	0.06219353781786504	-39.23972835520026	5.622481754034077	3.52562633427159	6.380358750153995	-537.9586909402634	-48.82515924676863	-36.18567108462162	0.004113964295366543	-0.01924786749469398	-0.1735015356935914	-0.4160719866234309	0.3360669239251509	-0.5717957519144833	0.4068062732633449	-0.935215123673248	-0.9352151236752622	-0.07752655148656273	-0.2855426500185548	-0.4852790543735054	0.2410345623791436	8.069133015680968e-08	-4.292483182907519e-07	-2.910619835936382e-07	-1.156180347036894e-07	1.075042878888293e-07	1.049814753662495e-08	7.04523776335784e-09
0.52	-0.02253796668913841	0.1054870263493445	0.8471986627906497	0.3994047970604222	-0.4312036726816751	-0.343850274038111	-0.2304133685134843	0.5784335469508985	0.5784335469508123	-0.1673696788015031	-0.1700761091357794	0.2278567396497638	0.04742401614621547	0.07362645578001191	0.09180405278776814	-0.1839434144330331	0.5137826644620307	-0.2321535615614369	0.5225112286865364	-0.181105272548802	1.257899510933323	1.257899510933256	0.0003777989299965493	0.02118355238263459	0.7477029933942266	0.1732094582238725	-0.01515841562048054	0.05476092812222362	-0.01516918152271154	-0.22179181153389	-0.01740712830339066	-0.006497492113248623	0.06296076106087943	-40.41157864956983	5.855029083464553	3.348259688714964	6.876106554420054	-539.2263514211385	-48.60044345410643	-35.70563715171603	-0.007918222381779525	-0.02647724156140722	-0.1492633039354926	-0.461441825635719	0.3529783297391224	-0.6797533253638222	0.4226239721185278	-1.039654645668932	-1.039654645668986	-0.02694063659511704	-0.3331258471546355	-0.5480832343193038	0.2299205467487681	7.821895896511182e-08	-4.049784497942258e-07	-3.118108080047576e-07	-1.106795959667742e-07	1.047085369919502e-07	3.005356632769629e-08	9.823163969871522e-09
0.53	-0.02180265906743272	0.1064036635091876	0.8453520854499383	0.4045190772823594	-0.4335077636144778	-0.3386603554029231	-0.2322025299658665	0.5909589845098802	0.5909589845098501	-0.1673676152923938	-0.1698817052273879	0.2353052972955442	0.04916675389246603	0.07341761046938772	0.09151619135834625	-0.1853322560381115	0.5089661770054468	-0.2286861384953033	0.5154710744267924	-0.1766942307904019	1.246989547372534	1.246989547372311	-7.359820471765079e-05	0.01772825585412911	0.7418915770309081	0.1752403548396441	-0.0157652496772603	0.05650883905715402	-0.01500594360153538	-0.2241075163146854	-0.02072267831315616	-0.006296806848182185	0.06371774428300082	-41.5192173721811	6.086433720863266	3.169018340414748	7.318054913581924	-540.4329740390887	-48.37024922841267	-35.21463791162387	-0.0299644668588875	-0.03104038225172409	-0.1277042903728297	-0.507807841418913	0.3404887308935826	-0.7163475921909552	0.4552623469350461	-1.146437493335918	-1.146437493359177	-0.07059857358616894	-0.3471336649380658	-0.6152209204582737	0.1751127142591457	8.021786469413348e-08	-3.918971705975877e-07	-3.333186053385292e-07	-1.091375417490202e-07	1.072864679233942e-07	4.386095397702975e-08	1.353419002247879e-08
0.54	-0.02106995925513208	0.1073172020970141	0.8434928177528608	0.4095819815024535	-0.4357778074294581	-0.3335408785335067	-0.2339465973868454	0.6033693683770354	0.6033693683767474	-0.1673733376192352	-0.1697209347055571	0.2426922307610678	0.05092688830392487	0.07310489390045627	0.09118433838446932	-0.1864814857061094	0.5035074641189194	-0.2253441379953715	0.5084228755306034	-0.1720864662626858	1.234888772529668	1.234888772529289	-0.001179368206531132	0.01445687495598734	0.7353781573427801	0.1766887912661191	-0.01637208373544381	0.05825674999179836	-0.01484270568382499	-0.2264232210954421	-0.02403822832307534	-0.006096121583542054	0.06447472750410983	-42.63533470303872	6.31923168047598	2.989659023808373	7.771479762817359	-541.7555322255558	-48.15818602324551	-34.71472125761512	-0.02869247404376552	-0.03527555045174529	-0.1013409165195184	-0.5898869116244314	0.3278938164984821	-0.6813622526523672	0.4619685259810566	-1.277816902084237	-1.277816902084252	-0.1578152100153301	-0.2963427210815844	-0.6884838992801738	0.1134285088898866	8.71637151013981e-08	-3.91194756158273e-07	-3.556661173952353e-07	-1.113531895524659e-07	1.158097489627704e-07	5.130881780997228e-08	1.827758186225344e-08
0.55	-0.02034105140516744	0.1082271539985527	0.8416232590054623	0.4145877627604518	-0.4380145878264654	-0.3284930141837681	-0.2356436035792929	0.6156533176656575	0.6156533176654208	-0.1673915598260502	-0.1695925706347019	0.2500108190426696	0.05269938750283936	0.07264763435275803	0.0907942344632537	-0.1873896620756592	0.4976004891126715	-0.2219884494093296	0.5010436473573308	-0.1672850414288427	1.221748883151994	1.221748883151674	-0.002399412625875641	0.01119467211624189	0.7282490599251419	0.1777895075029541	-0.0168706262881766	0.0599551317625442	-0.01472517877538581	-0.2287476974495608	-0.02722512966348866	-0.005893621529725461	0.06513194950955296	-43.70623968182155	6.542767427257498	2.812413247260885	8.190093342957868	-542.9972353725772	-47.97459273175649	-34.20785269099181	-0.05857540531681467	-0.04267144239781277	-0.07944165097875805	-0.5983208368075033	0.3430263333484647	-0.7821376419993857	0.4936890803680881	-1.354909436668451	-1.35490943665944	-0.09433517627388456	-0.3444146923378011	-0.7386934664317676	0.1052658498311257	8.844649639307685e-08	-3.741945960742734e-07	-3.647050403834387e-07	-1.08488526352989e-07	1.176235928408996e-07	6.07540384735661e-08	2.116115264896129e-08
0.5600000000000001	-0.01961758269271456	0.1091328461349923	0.8397458413636076	0.4195330306599322	-0.4402170873468723	-0.3235221290242322	-0.2372917035997698	0.6278013011644548	0.6278013011639965	-0.1674200297009625	-0.169497479717113	0.2572554021894115	0.05448226839786983	0.07201706639764285	0.09033238536467235	-0.1880532645971495	0.49140479243915	-0.2184879626755442	0.4930270374906676	-0.1623052318637621	1.20769561453195	1.207695614531689	-0.003228901780453531	0.007802244199767962	0.7205771303704553	0.1787651304898082	-0.01736916884232737	0.06165351353293013	-0.01460765187004341	-0.2310721738037006	-0.0304120310040864	-0.00569112147646707	0.06578917151401334	-44.78613396448001	6.767559259680644	2.635330601409436	8.623253772948212	-544.3608955683479	-47.80891983780216	-33.6959220451983	-0.06335415552770854	-0.04962458592421629	-0.05242614690771346	-0.6476312450792087	0.3568534460469187	-0.8088385913300628	0.4976454722278617	-1.46049275055788	-1.460492750557925	-0.07970415706238312	-0.3223877364270348	-0.797050326688845	0.08840985889410542	8.293359474605277e-08	-3.376371412166528e-07	-3.577736564894394e-07	-9.952748995000536e-08	1.113861121255327e-07	7.259608733394136e-08	2.181293817198904e-08
0.5700000000000001	-0.01890115441925524	0.1100335698343686	0.8378630342383082	0.4244145716538241	-0.4423841435110343	-0.3186335994241674	-0.2388893146961971	0.6398039779747785	0.6398039779746914	-0.1674559723418459	-0.1694363155491179	0.2644204272229535	0.05627378157642388	0.07124899165424411	0.08980127097408325	-0.1884656847837302	0.4848283233426453	-0.2149289505937986	0.4846634689505113	-0.1572032502888057	1.192670683703196	1.192670683703156	-0.00400982369320686	0.004457582025756929	0.7123253809257993	0.1794638822821814	-0.01775530055178608	0.06320699159600568	-0.01451821954339212	-0.2334790749479049	-0.03335270921569716	-0.005520869723658917	0.06635301447371893	-45.78422431483402	6.994540035826786	2.455035586845482	9.011995262406717	-545.6311176908029	-47.63744325275898	-33.18072461794435	-0.08645391521299781	-0.05653628595412494	-0.02925703136977616	-0.6738947317396594	0.3546602523329151	-0.8524080342226548	0.5185350685891467	-1.548857261408587	-1.548857261375329	-0.08488767193679059	-0.3365204887127187	-0.8546160388627397	0.04965516792373779	7.471120557199638e-08	-2.964812312737534e-07	-3.335554888616011e-07	-8.90673708514179e-08	1.032212902772247e-07	7.420164154936776e-08	2.090711259972786e-08
0.58	-0.01819299084951657	0.1109286461057746	0.8359773814957765	0.4292280999586876	-0.4445157625217534	-0.3138291639192841	-0.2404354938632033	0.6516513326744958	0.651651332674531	-0.1675012444948442	-0.1694078010084895	0.2714998590049494	0.05807009173860251	0.07036412565209299	0.089202899770623	-0.1886223880433921	0.4778022546540155	-0.2114005319881957	0.4762082184557827	-0.1520188459755058	1.176631192379472	1.176631192379654	-0.005094804148189419	0.00127231861869892	0.70345848006079	0.1797245272151318	-0.01814143226251097	0.06476046965873485	-0.01442878721998998	-0.2358859760920678	-0.03629338742747169	-0.005350617971382551	0.0669168574325527	-46.7911402500643	7.222554829922026	2.27515951544875	9.415604039739685	-547.0196574942989	-47.48321733760676	-32.66398884118831	-0.08671240727875297	-0.06307594849777472	-0.001282761524026255	-0.737551163504335	0.3507347508181156	-0.8271749822442229	0.5141300198958815	-1.663404849551625	-1.663404849551624	-0.1405158655086195	-0.2905079830362467	-0.9200806107585606	0.000788487009925844	6.296018147901443e-08	-2.493366356383984e-07	-2.868243005571366e-07	-7.665495800971872e-08	9.254644276741193e-08	6.24759469248613e-08	1.797277025220677e-08
